<svg width="36" height="36" viewBox="0 0 36 36" fill="none" xmlns="http://www.w3.org/2000/svg">
<path d="M18 7.62939e-06C15.6362 7.62939e-06 13.2956 0.477151 11.1117 1.40419C8.92785 2.33124 6.94354 3.69002 5.27209 5.40298C1.89643 8.86244 1.14441e-05 13.5545 1.14441e-05 18.4469C1.14441e-05 26.6004 5.16601 33.518 12.312 35.9714C13.212 36.119 13.5 35.5472 13.5 35.0491V31.9316C8.51401 33.0384 7.45201 29.4597 7.45201 29.4597C6.62401 27.3198 5.45401 26.748 5.45401 26.748C3.81601 25.6043 5.58001 25.6412 5.58001 25.6412C7.38001 25.7703 8.33401 27.5412 8.33401 27.5412C9.90001 30.3451 12.546 29.515 13.572 29.0723C13.734 27.8733 14.202 27.0616 14.706 26.6004C10.71 26.1392 6.51601 24.5528 6.51601 17.5245C6.51601 15.4769 7.20001 13.8352 8.37001 12.5254C8.19001 12.0643 7.56001 10.1458 8.55001 7.65547C8.55001 7.65547 10.062 7.1574 13.5 9.53705C14.922 9.13122 16.47 8.9283 18 8.9283C19.53 8.9283 21.078 9.13122 22.5 9.53705C25.938 7.1574 27.45 7.65547 27.45 7.65547C28.44 10.1458 27.81 12.0643 27.63 12.5254C28.8 13.8352 29.484 15.4769 29.484 17.5245C29.484 24.5713 25.272 26.1208 21.258 26.582C21.906 27.1538 22.5 28.2791 22.5 29.9946V35.0491C22.5 35.5472 22.788 36.1375 23.706 35.9714C30.852 33.4996 36 26.6004 36 18.4469C36 16.0244 35.5344 13.6257 34.6298 11.3876C33.7253 9.1495 32.3994 7.11593 30.7279 5.40298C29.0565 3.69002 27.0722 2.33124 24.8883 1.40419C22.7045 0.477151 20.3638 7.62939e-06 18 7.62939e-06Z" fill="#F2ECFF"/>
</svg>
