<svg width="72" height="80" viewBox="0 0 72 80" fill="none" xmlns="http://www.w3.org/2000/svg">
<path d="M7.04248 71.875L0.63623 0H71.105L64.6987 71.875L35.7925 80" fill="#E34F26"/>
<path d="M35.9487 73.75L59.23 67.3438L64.6987 5.78125H35.9487" fill="#EF652A"/>
<path d="M35.9487 32.5H24.23L23.4487 23.4375H35.9487V14.6875H13.7612L16.105 41.4062H35.9487V32.5ZM35.7925 55.4688L25.9487 52.8125L25.3237 45.7812H16.5737L17.6675 59.6875L35.7925 64.6875V55.4688Z" fill="#EBEBEB"/>
<path d="M35.7925 32.5V41.4062H46.73L45.6362 52.8125L35.7925 55.4688V64.6875L53.9175 59.6875L56.4175 32.5H35.7925ZM35.7925 14.6875V23.4375H57.1987L57.98 14.6875H35.7925Z" fill="white"/>
</svg>
