<svg width="81" height="80" viewBox="0 0 81 80" fill="none" xmlns="http://www.w3.org/2000/svg">
<g clip-path="url(#clip0_17_354)">
<path d="M0.10498 0H80.105V80H0.10498V0Z" fill="#F7DF1E"/>
<path d="M21.14 66.8538L27.2618 63.1488C28.4431 65.2429 29.5175 67.0147 32.0946 67.0147C34.565 67.0147 36.1228 66.0485 36.1228 62.2897V36.7279H43.6406V62.396C43.6406 70.1825 39.0762 73.7269 32.4168 73.7269C26.4028 73.7269 22.9118 70.6122 21.1396 66.8532M47.724 66.0482L53.8453 62.5041C55.4568 65.1357 57.5512 67.0688 61.2562 67.0688C64.3715 67.0688 66.3578 65.5113 66.3578 63.3632C66.3578 60.7857 64.3172 59.8725 60.8803 58.3694L59.0012 57.5632C53.5771 55.2547 49.9793 52.3547 49.9793 46.2329C49.9793 40.5941 54.2753 36.2979 60.9881 36.2979C65.7675 36.2979 69.2043 37.9628 71.6743 42.3125L65.8206 46.0719C64.5315 43.7628 63.1359 42.85 60.9878 42.85C58.7859 42.85 57.3897 44.2463 57.3897 46.0719C57.3897 48.3272 58.7859 49.2407 62.0078 50.6369L63.8871 51.4422C70.2778 54.1813 73.8756 56.9735 73.8756 63.256C73.8756 70.0229 68.5593 73.7279 61.4171 73.7279C54.4362 73.7279 49.9253 70.3985 47.7237 66.0485" fill="black"/>
</g>
<defs>
<clipPath id="clip0_17_354">
<rect width="80" height="80" fill="white" transform="translate(0.10498)"/>
</clipPath>
</defs>
</svg>
