<svg width="93" height="80" viewBox="0 0 93 80" fill="none" xmlns="http://www.w3.org/2000/svg">
<path d="M46.4099 48.1721C50.9552 48.1721 54.64 44.5104 54.64 39.9934C54.64 35.4764 50.9552 31.8147 46.4099 31.8147C41.8645 31.8147 38.1797 35.4764 38.1797 39.9934C38.1797 44.5104 41.8645 48.1721 46.4099 48.1721Z" fill="#53C1DE"/>
<path d="M17.7136 54.4766C18.5224 54.7432 19.3312 55.0137 20.1592 55.2461C19.8909 56.3165 19.6571 57.3717 19.4386 58.4612C17.5526 68.3732 19.0246 76.2281 23.7319 78.9251C28.5849 81.7097 36.7422 78.8527 44.6849 71.9425C45.3136 71.3902 45.9422 70.8188 46.5709 70.2093C47.3606 70.9788 48.1886 71.7102 49.0127 72.4225C56.7024 78.9937 64.3039 81.6526 68.9959 78.9594C73.8489 76.1747 75.4282 67.7294 73.3812 57.4441C73.2153 56.6372 73.0351 55.8333 72.8407 55.0328C73.4157 54.8728 73.9716 54.6937 74.5312 54.5147C84.9004 51.1053 92.4099 45.5855 92.4099 39.9248C92.4099 34.5155 85.3297 29.2662 75.5547 25.9254C74.5899 25.6063 73.62 25.299 72.6452 25.0111C72.8062 24.3521 72.9519 23.6893 73.0937 23.0303C75.3056 12.3869 73.8489 3.83869 68.9422 1.01595C64.2157 -1.68108 56.5069 1.12262 48.7099 7.87281C47.9356 8.53183 47.1842 9.22895 46.4636 9.92606C45.9749 9.45879 45.4778 9.00032 44.9724 8.55088C36.7959 1.33594 28.6041 -1.70012 23.6974 1.14166C18.9901 3.85774 17.5871 11.9107 19.5651 21.9751C19.7644 22.9769 19.9791 23.956 20.2282 24.9578C19.0782 25.2778 17.9474 25.6359 16.8856 26.013C7.29074 29.3157 0.409912 34.5308 0.409912 39.9248C0.409912 45.4979 7.73924 51.0824 17.7136 54.4766ZM42.1511 69.0246C39.1884 71.7235 35.7532 73.8602 32.0157 75.3291C30.0224 76.2738 27.7224 76.3652 25.6716 75.5614C22.8157 73.9196 21.6274 67.6151 23.2451 59.1316C23.4444 58.1336 23.6591 57.1317 23.9082 56.1489C27.9332 57.006 31.9927 57.5965 36.1097 57.8974C38.485 61.2407 41.0781 64.4258 43.8722 67.4322C43.2972 67.9846 42.7222 68.5217 42.1472 69.0207L42.1511 69.0246ZM64.9709 35.4945C64.1322 33.9188 63.2632 32.3592 62.3642 30.8166C61.4826 29.3005 60.5664 27.7996 59.6157 26.3178C62.5099 26.6758 65.2776 27.1558 67.8651 27.7463C67.0371 30.3774 66.071 32.9637 64.9709 35.4945ZM65.0054 44.3856C66.1554 46.976 67.1636 49.6006 68.0414 52.2976C65.2546 52.9224 62.4371 53.4062 59.5966 53.7261C61.5342 50.6916 63.3388 47.5751 65.0054 44.3856ZM62.9277 39.9439C60.5164 44.8741 57.7678 49.6342 54.7014 54.1909C52.0257 54.389 49.2389 54.4766 46.4176 54.4766C43.5962 54.4766 40.8669 54.389 38.2257 54.2252C35.107 49.7024 32.3378 44.9512 29.9419 40.0124H29.9342C32.3106 35.0802 35.062 30.3352 38.1644 25.8187C43.6565 25.4147 49.171 25.4147 54.6631 25.8187C56.1887 28.0701 57.6454 30.3709 59.0292 32.7289C60.4092 35.0901 61.7095 37.4964 62.9277 39.9439ZM30.4326 30.8509C29.5509 32.367 28.6884 33.9174 27.8796 35.4907C26.7944 32.9446 25.8349 30.3473 25.0046 27.7082C27.5921 27.1368 30.3406 26.672 33.1964 26.314C32.2496 27.7958 31.3142 29.3119 30.4326 30.8509ZM27.8834 44.5265C28.7114 46.0998 29.5547 47.654 30.4517 49.1892C31.3679 50.7434 32.3032 52.2976 33.2922 53.8138C30.4916 53.5105 27.7087 53.0629 24.9547 52.4729C25.7444 49.9015 26.7334 47.2426 27.8834 44.5265ZM46.5556 64.6819C44.6321 62.6147 42.8154 60.4521 41.1122 58.2021C44.6989 58.348 48.2901 58.3416 51.8762 58.1831C50.2243 60.445 48.4481 62.6145 46.5556 64.6819ZM70.0424 70.0455C69.9582 71.1284 69.6514 72.1827 69.1411 73.1432C68.6308 74.1037 67.9278 74.9501 67.0754 75.63C64.2196 77.2718 58.1284 75.131 51.5504 69.5236C50.7765 68.8543 50.0161 68.1697 49.2696 67.4703C52.0154 64.4576 54.5488 61.2603 56.8519 57.9012C60.976 57.5615 65.071 56.9352 69.1071 56.027C69.2872 56.7584 69.4482 57.4898 69.5939 58.206C70.4714 62.0919 70.6234 66.105 70.0424 70.0455ZM71.6026 28.691C72.5379 28.9577 73.4349 29.2434 74.2974 29.5291C82.6694 32.3861 88.5459 36.6373 88.5459 39.8867C88.5459 43.3875 82.2746 47.9054 73.3084 50.8501C72.8062 51.0101 72.3041 51.1701 71.7827 51.3148C70.516 47.4186 68.9856 43.612 67.2019 39.921C68.9269 36.2793 70.3836 32.527 71.6026 28.691ZM51.2399 10.7641C57.9291 4.9815 64.1621 2.71493 67.0026 4.33772C70.0386 6.07098 71.2077 13.0688 69.3026 22.2646C69.1827 22.8641 69.0446 23.4599 68.8886 24.0512C64.9038 23.155 60.8635 22.5226 56.7944 22.1579C54.4616 18.8277 51.904 15.6586 49.1392 12.6726C49.8407 12.0136 50.5231 11.3889 51.2399 10.7641ZM46.4482 15.4077C48.3342 17.4419 50.1129 19.5828 51.7651 21.796C48.2032 21.6361 44.6358 21.6361 41.0739 21.796C42.8334 19.4952 44.6504 17.3543 46.4482 15.4077ZM25.6026 4.46343C28.6232 2.71493 35.3239 5.21387 42.3849 11.427C42.8334 11.8193 43.2819 12.2498 43.7496 12.6764C40.9676 15.6591 38.3921 18.8256 36.0407 22.1541C31.9797 22.515 27.9463 23.1359 23.9657 24.0131C23.7319 23.1027 23.5364 22.1732 23.3371 21.2437C21.6466 12.6002 22.7621 6.08622 25.6026 4.46343ZM18.1467 29.6357C19.1702 29.2776 20.2129 28.9577 21.2556 28.6529C22.4772 32.5275 23.9471 36.3205 25.6562 40.0086C23.9312 43.7418 22.4401 47.5969 21.2019 51.5243L21.1981 51.5281C20.4495 51.3159 19.7068 51.0834 18.9709 50.831C15.1452 49.6349 10.7944 47.7416 7.65108 45.2617C6.75377 44.645 5.9918 43.8536 5.41129 42.9356C4.83079 42.0176 4.44385 40.992 4.27391 39.921C4.27391 36.6526 9.95108 32.4737 18.1467 29.6357Z" fill="#53C1DE"/>
</svg>
