<svg width="96" height="80" viewBox="0 0 96 80" fill="none" xmlns="http://www.w3.org/2000/svg">
<path d="M45.1712 19.1151C46.2584 18.6638 46.3405 17.6627 46.3405 17.3632C46.3405 17.0678 46.2584 16.0627 45.1712 15.6114C44.6255 15.3857 44.1988 14.959 43.9732 14.4134C43.7475 13.8677 43.7475 13.2646 43.9732 12.719L45.4174 9.23574C45.8851 8.10749 47.1815 7.57003 48.3139 8.03774C49.4011 8.48904 50.1683 7.83671 50.3775 7.62747C50.5868 7.41823 51.2391 6.64692 50.7878 5.5638C50.5622 5.01814 50.5622 4.41504 50.7878 3.86938C51.0135 3.32371 51.4402 2.89703 51.9858 2.67138L55.469 1.22722C56.5973 0.75951 57.8937 1.29697 58.3656 2.42522C58.8169 3.50834 59.8179 3.59449 60.1174 3.59449C60.4128 3.59449 61.418 3.51244 61.8693 2.42522C62.0949 1.87955 62.5216 1.45287 63.0673 1.22722C63.6129 1.00157 64.216 1.00157 64.7617 1.22722L68.2449 2.67138C68.7906 2.89703 69.2173 3.32371 69.4429 3.86938C69.6686 4.41504 69.6686 5.01814 69.4429 5.5638C68.9916 6.65102 69.6439 7.41823 69.8532 7.62747C70.0624 7.83671 70.8337 8.48904 71.9169 8.03774C72.4625 7.81209 73.0656 7.81209 73.6113 8.03774C74.1569 8.26339 74.5836 8.69008 74.8093 9.23574L76.2534 12.719C76.4791 13.2646 76.4791 13.8677 76.2534 14.4134C76.0278 14.959 75.6011 15.3857 75.0554 15.6114C73.9723 16.0627 73.8862 17.0637 73.8862 17.3632C73.8862 17.6627 73.9723 18.6638 75.0554 19.1151C76.1837 19.5828 76.7211 20.8834 76.2534 22.0116L74.8093 25.4948C74.5836 26.0405 74.1569 26.4672 73.6113 26.6928C73.0656 26.9185 72.4625 26.9185 71.9169 26.6928C70.8337 26.2456 70.0624 26.8939 69.8532 27.1031C69.6439 27.3123 68.9916 28.0837 69.4429 29.1668C69.9106 30.295 69.3732 31.5956 68.2449 32.0633L64.7617 33.5075C64.4868 33.6223 64.1996 33.6757 63.9124 33.6757C63.6252 33.6757 63.3381 33.6182 63.0632 33.5075C62.5175 33.2818 62.0908 32.8551 61.8652 32.3095C61.4139 31.2222 60.4128 31.1402 60.1133 31.1402C59.8179 31.1402 58.8127 31.2222 58.3614 32.3095C57.8937 33.4377 56.5932 33.9752 55.4649 33.5075L51.9817 32.0633C50.8535 31.5956 50.316 30.295 50.7837 29.1668C51.235 28.0796 50.5827 27.3123 50.3734 27.1031C50.1642 26.8939 49.397 26.2415 48.3098 26.6928C47.1815 27.1564 45.8851 26.619 45.4174 25.4907L43.9732 22.0075C43.5055 20.8793 44.0429 19.5828 45.1712 19.1151ZM60.1174 23.4804C63.4899 23.4804 66.2346 20.7357 66.2346 17.3632C66.2346 13.9908 63.4899 11.2461 60.1174 11.2461C56.745 11.2461 54.0003 13.9908 54.0003 17.3632C54.0003 20.7357 56.745 23.4804 60.1174 23.4804Z" fill="#38BDF8"/>
<path d="M44.714 57.627H37.4714C36.8892 57.627 36.4167 57.1556 36.4167 56.5723V42.2539C36.4167 41.6707 36.8892 41.1992 37.4714 41.1992H44.714C45.2961 41.1992 45.7686 41.6707 45.7686 42.2539C45.7686 42.8371 45.2961 43.3086 44.714 43.3086H38.5261V55.5176H44.714C45.2961 55.5176 45.7686 55.9891 45.7686 56.5723C45.7686 57.1556 45.2972 57.627 44.714 57.627Z" fill="#38BDF8"/>
<path d="M42.5181 50.4678H37.4714C36.8892 50.4678 36.4167 49.9963 36.4167 49.4131C36.4167 48.8298 36.8892 48.3584 37.4714 48.3584H42.5181C43.1003 48.3584 43.5728 48.8298 43.5728 49.4131C43.5728 49.9963 43.1013 50.4678 42.5181 50.4678Z" fill="#38BDF8"/>
<path d="M27.5121 50.4678H22.5825C22.0003 50.4678 21.5278 49.9963 21.5278 49.4131V42.2539C21.5278 41.6707 22.0003 41.1992 22.5825 41.1992H27.5121C29.6036 41.1992 31.3048 42.9004 31.3048 44.9919V46.6762C31.3048 48.7655 29.6036 50.4678 27.5121 50.4678ZM23.6372 48.3584H27.5121C28.4402 48.3584 29.1954 47.6033 29.1954 46.6751V44.9908C29.1954 44.0627 28.4402 43.3075 27.5121 43.3075H23.6372V48.3584Z" fill="#38BDF8"/>
<path d="M30.2501 57.627C29.6679 57.627 29.1954 57.1555 29.1954 56.5723V52.151C29.1954 51.2229 28.4402 50.4678 27.5121 50.4678H23.6372V56.5723C23.6372 57.1555 23.1647 57.627 22.5825 57.627C22.0003 57.627 21.5278 57.1555 21.5278 56.5723V49.4131C21.5278 48.8298 22.0003 48.3584 22.5825 48.3584H27.5121C29.6036 48.3584 31.3048 50.0596 31.3048 52.151V56.5723C31.3048 57.1555 30.8323 57.627 30.2501 57.627Z" fill="#38BDF8"/>
<path d="M73.1588 43.3086H64.1265C63.5432 43.3086 63.0718 42.8371 63.0718 42.2539C63.0718 41.6707 63.5432 41.1992 64.1265 41.1992H73.1588C73.742 41.1992 74.2135 41.6707 74.2135 42.2539C74.2135 42.8371 73.741 43.3086 73.1588 43.3086Z" fill="#38BDF8"/>
<path d="M68.6418 57.627C68.0586 57.627 67.5872 57.1556 67.5872 56.5723V42.2539C67.5872 41.6707 68.0586 41.1992 68.6418 41.1992C69.2251 41.1992 69.6965 41.6707 69.6965 42.2539V56.5723C69.6965 57.1556 69.2251 57.627 68.6418 57.627Z" fill="#38BDF8"/>
<path d="M54.953 57.627H53.6252C51.4483 57.627 49.6775 55.9057 49.6775 53.79C49.6775 53.2068 50.1489 52.7353 50.7322 52.7353C51.3154 52.7353 51.7869 53.2068 51.7869 53.79C51.7869 54.7424 52.6116 55.5176 53.6252 55.5176H54.953C56.051 55.5176 56.9443 54.677 56.9443 53.6434V52.343C56.9443 51.3094 56.051 50.4688 54.953 50.4688H53.7792C51.5169 50.4688 49.6775 48.6822 49.6775 46.4853V45.1848C49.6775 42.9879 51.5169 41.2013 53.7792 41.2013H55.107C57.2828 41.2013 59.0536 42.9225 59.0536 45.0372C59.0536 45.6204 58.5822 46.0919 57.999 46.0919C57.4157 46.0919 56.9443 45.6204 56.9443 45.0372C56.9443 44.0859 56.1206 43.3107 55.107 43.3107H53.7792C52.6812 43.3107 51.7869 44.1512 51.7869 45.1848V46.4853C51.7869 47.5189 52.6812 48.3594 53.7792 48.3594H54.953C57.2143 48.3594 59.0536 50.1461 59.0536 52.343V53.6434C59.0536 55.8403 57.2132 57.627 54.953 57.627Z" fill="#38BDF8"/>
<path d="M40.2127 80C39.6305 80 39.158 79.5286 39.158 78.9453V67.714C39.158 66.5928 38.2457 65.6805 37.1256 65.6805H34.413C33.2919 65.6805 32.3806 66.5928 32.3806 67.714V78.9443C32.3806 79.5275 31.9081 79.9989 31.3259 79.9989C30.7437 79.9989 30.2712 79.5275 30.2712 78.9443V67.714C30.2712 65.4295 32.1296 63.5712 34.413 63.5712H37.1256C39.4101 63.5712 41.2674 65.4295 41.2674 67.714V78.9443C41.2674 79.5275 40.7949 80 40.2127 80Z" fill="#38BDF8"/>
<path d="M40.2125 72.8408H31.3247C30.7425 72.8408 30.27 72.3694 30.27 71.7861C30.27 71.2029 30.7425 70.7314 31.3247 70.7314H40.2125C40.7947 70.7314 41.2672 71.2029 41.2672 71.7861C41.2672 72.3694 40.7947 72.8408 40.2125 72.8408Z" fill="#38BDF8"/>
<path d="M62.6267 80C62.0435 80 61.572 79.5286 61.572 78.9454V64.627C61.572 64.0437 62.0435 63.5723 62.6267 63.5723C63.2099 63.5723 63.6814 64.0437 63.6814 64.627V78.9454C63.6814 79.5275 63.2099 80 62.6267 80Z" fill="#38BDF8"/>
<path d="M53.0345 73.7131H47.7927C47.2105 73.7131 46.738 73.2416 46.738 72.6584V64.627C46.738 64.0437 47.2105 63.5723 47.7927 63.5723H53.0345C55.1544 63.5723 56.8788 65.2977 56.8788 67.4177V69.8687C56.8778 71.9876 55.1534 73.7131 53.0345 73.7131ZM48.8464 71.6037H53.0335C53.9901 71.6037 54.7684 70.8253 54.7684 69.8677V67.4166C54.7684 66.46 53.9911 65.6806 53.0335 65.6806H48.8464V71.6037Z" fill="#38BDF8"/>
<path d="M47.7915 80C47.2093 80 46.7368 79.5285 46.7368 78.9453V72.6583C46.7368 72.0751 47.2093 71.6036 47.7915 71.6036C48.3737 71.6036 48.8462 72.0751 48.8462 72.6583V78.9453C48.8462 79.5275 48.3747 80 47.7915 80Z" fill="#38BDF8"/>
<path d="M73.6062 72.0613C73.023 72.0613 72.5515 71.5899 72.5515 71.0066C72.5515 70.4234 73.023 69.952 73.6062 69.952C84.422 69.952 93.2223 61.1538 93.2223 50.338C93.2223 42.8075 89.0215 36.0607 82.2578 32.7311C81.9287 32.5697 81.7083 32.2491 81.6735 31.8852C81.4088 29.1261 80.738 26.4346 79.678 23.8833C79.4544 23.3454 79.7097 22.7284 80.2475 22.5048C80.7886 22.2812 81.4035 22.5365 81.6271 23.0744C82.6923 25.6404 83.3926 28.3383 83.7122 31.1047C90.8946 34.8773 95.3317 42.1926 95.3317 50.3369C95.3317 62.316 85.5864 72.0613 73.6062 72.0613Z" fill="#38BDF8"/>
<path d="M22.1354 72.0614C10.1563 72.0614 0.409912 62.3161 0.409912 50.3381C0.409912 38.359 10.1563 28.6126 22.1354 28.6126H24.5569C26.1801 20.5707 31.0686 13.5064 38.0759 9.12731C38.5695 8.81934 39.2202 8.97017 39.5292 9.4627C39.8372 9.9563 39.6874 10.607 39.1938 10.9161C32.4439 15.1348 27.8075 22.0346 26.4733 29.8445C26.3868 30.3507 25.947 30.722 25.4334 30.722H22.1354C11.3185 30.722 2.51928 39.5212 2.51928 50.337C2.51928 61.1528 11.3185 69.9531 22.1354 69.9531C22.7176 69.9531 23.1901 70.4246 23.1901 71.0078C23.1901 71.591 22.7176 72.0614 22.1354 72.0614Z" fill="#38BDF8"/>
<path d="M63.9126 34.7301C63.4818 34.7301 63.0592 34.6439 62.6612 34.4798C61.853 34.1475 61.2253 33.5157 60.893 32.7115C60.7165 32.2808 60.3719 32.1905 60.1175 32.1905C59.8591 32.1905 59.5185 32.2808 59.3421 32.7115C58.6529 34.3731 56.7369 35.1691 55.0712 34.4798L51.5839 33.0357C49.9182 32.3464 49.1263 30.4263 49.8156 28.7647C50.0043 28.3134 49.7828 27.9975 49.6351 27.8498C49.4505 27.6652 49.1428 27.4888 48.7161 27.6652C47.0504 28.3503 45.1344 27.5585 44.441 25.8969L42.9969 22.4137C42.3076 20.748 43.0994 18.832 44.7651 18.1428C45.1959 17.9664 45.2862 17.6217 45.2862 17.3674C45.2862 17.1089 45.1959 16.7684 44.7693 16.5919C43.961 16.2596 43.3333 15.6278 43.001 14.8237C42.6646 14.0154 42.6646 13.1292 43.001 12.321L44.4451 8.83779C45.1385 7.17208 47.0545 6.38025 48.7202 7.06951C49.151 7.24593 49.4546 7.06951 49.6351 6.88899C49.8197 6.70437 49.9961 6.40077 49.8197 5.96998C49.4874 5.16174 49.4874 4.27555 49.8197 3.46732C50.1561 2.65908 50.7838 2.03136 51.588 1.69904L55.0712 0.254884C56.7369 -0.434374 58.6529 0.361555 59.3462 2.02316C59.5226 2.44984 59.8673 2.5401 60.1216 2.5401C60.3801 2.5401 60.7206 2.44984 60.8971 2.02316C61.2335 1.21492 61.8612 0.587205 62.6694 0.250781C63.4777 -0.085642 64.3639 -0.0815393 65.1721 0.250781L68.6553 1.69494C69.4636 2.03136 70.0913 2.65908 70.4277 3.46322C70.7641 4.27145 70.7641 5.16174 70.4277 5.96588C70.2513 6.39256 70.4277 6.70027 70.6082 6.88079C70.7928 7.06541 71.0964 7.24182 71.5231 7.06541C72.3314 6.73309 73.2217 6.73309 74.0258 7.06541C74.834 7.40183 75.4617 8.02955 75.7982 8.83779L77.2382 12.321C77.5746 13.1292 77.5746 14.0154 77.2382 14.8237C76.9018 15.6319 76.2741 16.2596 75.4658 16.596C75.0392 16.7725 74.9489 17.1171 74.9489 17.3715C74.9489 17.6258 75.0392 17.9705 75.4699 18.1469C76.2782 18.4792 76.9059 19.111 77.2382 19.9192C77.5746 20.7275 77.5746 21.6137 77.2382 22.4219L75.7941 25.9051C75.4617 26.7134 74.834 27.3411 74.0258 27.6734C73.2176 28.0057 72.3273 28.0057 71.5231 27.6734C71.0923 27.4929 70.7887 27.6734 70.6082 27.8539C70.4277 28.0344 70.2472 28.3421 70.4277 28.7688C71.117 30.4345 70.3251 32.3505 68.6594 33.0398L65.1762 34.4839C64.7659 34.648 64.3434 34.7301 63.9126 34.7301ZM60.1175 30.0817C61.0694 30.0817 62.2879 30.5617 62.8418 31.9033C62.9607 32.1905 63.1823 32.412 63.4695 32.531C63.7567 32.65 64.0726 32.65 64.3598 32.531L67.843 31.0869C68.4338 30.8407 68.7169 30.1597 68.4707 29.5689C67.9127 28.2232 68.4379 27.0252 69.1107 26.3523C69.7836 25.6795 70.9816 25.1584 72.3232 25.7123C72.6144 25.8313 72.9222 25.8313 73.2134 25.7123C73.5006 25.5933 73.7222 25.3718 73.8412 25.0846L75.2853 21.6014C75.4043 21.3142 75.4043 21.0024 75.2853 20.7152C75.1663 20.428 74.9448 20.2064 74.6576 20.0875C73.316 19.5295 72.836 18.3151 72.836 17.3633C72.836 16.4114 73.3119 15.1929 74.6576 14.639C74.9448 14.5201 75.1663 14.2985 75.2853 14.0113C75.4043 13.7241 75.4043 13.4082 75.2853 13.121L73.8412 9.63782C73.7222 9.35063 73.5006 9.12908 73.2134 9.0101C72.9263 8.89112 72.6103 8.89112 72.3232 9.0101C70.9857 9.56807 69.7836 9.04702 69.1066 8.37008C68.4338 7.70133 67.9127 6.49923 68.4707 5.15764C68.5897 4.87045 68.5897 4.55454 68.4707 4.26735C68.3517 3.98016 68.1302 3.75861 67.843 3.63963L64.3598 2.19547C64.0685 2.07649 63.7608 2.07649 63.4695 2.19547C63.1823 2.31445 62.9566 2.536 62.8418 2.82319C62.2879 4.16478 61.0694 4.6448 60.1175 4.6448C59.1657 4.6448 57.9472 4.16888 57.3933 2.82729C57.1472 2.2365 56.4661 1.95341 55.8753 2.19958L52.3921 3.63963C52.1049 3.75861 51.8834 3.98016 51.7644 4.26735C51.6454 4.55454 51.6454 4.87045 51.7644 5.15764C52.3224 6.50333 51.7972 7.70133 51.1203 8.37418C50.4515 9.04702 49.2535 9.56807 47.9078 9.0101C47.317 8.76394 46.636 9.04702 46.3898 9.63782L44.9457 13.121C44.8267 13.4082 44.8267 13.7241 44.9457 14.0072C45.0646 14.2944 45.2862 14.5201 45.5734 14.6349C46.9191 15.1929 47.395 16.4073 47.395 17.3633C47.395 18.3151 46.915 19.5295 45.5734 20.0875C44.9826 20.3336 44.6995 21.0147 44.9457 21.6055L46.3898 25.0887C46.636 25.6795 47.3211 25.9626 47.9078 25.7164C49.2494 25.1625 50.4474 25.6836 51.1203 26.3564C51.7931 27.0252 52.3183 28.2232 51.7603 29.5689C51.5141 30.1597 51.7972 30.8407 52.388 31.0869L55.8712 32.531C56.462 32.7772 57.1431 32.4941 57.3892 31.9033C57.9472 30.5617 59.1616 30.0817 60.1175 30.0817ZM60.1175 24.5348C56.1625 24.5348 52.946 21.3183 52.946 17.3633C52.946 13.4082 56.1625 10.1917 60.1175 10.1917C64.0726 10.1917 67.2891 13.4082 67.2891 17.3633C67.2891 21.3183 64.0726 24.5348 60.1175 24.5348ZM60.1175 12.3005C57.3236 12.3005 55.0548 14.5734 55.0548 17.3633C55.0548 20.1531 57.3277 22.426 60.1175 22.426C62.9074 22.426 65.1803 20.1531 65.1803 17.3633C65.1803 14.5734 62.9074 12.3005 60.1175 12.3005Z" fill="#38BDF8"/>
</svg>
