<?xml version="1.0" encoding="UTF-8"?><svg id="Layer_1" xmlns="http://www.w3.org/2000/svg" viewBox="0 0 2540 2540"><defs><style>.cls-1{fill:#d66fae;}.cls-2{fill:#ffcf45;}.cls-3{fill:none;stroke:#00c896;stroke-miterlimit:10;stroke-width:40px;}.cls-4{fill:#00c896;fill-rule:evenodd;}</style></defs><path class="cls-4" d="M368.14,1823.58c-34.81,0-57.74,18.68-57.74,43.58,0,22.08,13.58,36.79,44.43,45.28,28.02,7.92,33.96,11.89,33.96,24.34,0,11.32-10.47,18.11-26.6,18.11-15.28,0-29.15-5.94-40.75-14.72l-18.11,20.38c13.87,12.45,33.96,21.23,59.72,21.23,34.25,0,63.11-16.42,63.11-47.55,0-26.6-17.26-39.06-47.83-47.26-25.47-7.08-31.42-11.6-31.42-21.51,0-9.06,8.21-15,22.64-15,13.3,0,25.19,4.25,37.64,12.17l14.15-21.23c-14.15-11.04-31.7-17.83-53.21-17.83h0Zm160.47,123.68l12.74,23.21c-10.75,7.64-24.34,11.32-37.64,11.32-29.43-.28-45-16.98-45-48.96v-78.96h-23.49v-26.04h23.49v-33.11l36.23-4.25v37.36h34.81l-3.68,26.04h-31.13v78.11c0,14.72,4.81,20.66,15.85,20.66,5.66,0,11.32-1.7,17.83-5.38Zm154.25-119.43l-48.68,150.28c-11.32,35.09-33.4,57.74-77.83,61.13l-3.68-26.32c29.72-4.53,39.34-14.15,47.83-35.38h-12.45l-47.55-149.72h38.49l32.55,125.66,33.96-125.66h37.36Zm57.45,153.96c8.29,0,16.48-1.74,24.06-5.09l-7.64-25.47c-2.55,.85-5.09,1.42-8.49,1.42-5.94,0-8.49-3.4-8.49-10.47v-178.3l-36.23,3.96v175.47c0,24.62,13.87,38.49,36.79,38.49h0Zm170.94-82.64c0,4.81-.57,10.75-.85,14.72h-93.96c2.55,30.57,16.98,40.47,36.79,40.47,13.3,0,24.34-4.25,37.36-13.3l15,20.66c-14.72,11.89-32.83,20.09-55.47,20.09-46.42,0-71.32-30.85-71.32-78.11s24.06-80.09,66.51-80.09,65.94,28.3,65.94,75.57h0Zm-35.94-8.77v-1.7c0-24.62-8.77-39.34-29.15-39.34-16.98,0-27.74,11.32-29.72,41.04h58.87Zm158.21-126.51l36.23,3.96v209.72h-31.98l-2.55-18.96c-9.06,13.58-23.49,23.21-42.74,23.21-37.36,0-56.89-31.42-56.89-78.96s23.21-79.25,60.28-79.25c15.85,0,28.3,6.79,37.64,16.13v-75.85Zm-30.85,190.47c13.3,0,22.36-6.51,30.85-19.25v-68.49c-7.92-9.62-16.42-15.85-28.58-15.85-18.68,0-31.13,15.85-31.13,51.79,0,38.49,11.04,51.79,28.87,51.79h0Zm-633.3,152.26c-43.02,0-69.91,32.55-69.91,80.38s26.89,77.83,70.19,77.83c19.25,0,34.81-6.23,48.4-17.26l-16.13-22.92c-11.04,7.08-18.96,10.75-30.28,10.75-20.38,0-33.68-12.74-33.68-48.96s12.74-51.23,33.68-51.23c11.32,0,20.38,3.4,30.28,10.75l16.13-21.79c-14.15-12.17-29.15-17.55-48.68-17.55h0Zm136.13,0c44.15,0,70.19,30,70.19,78.96s-26.32,79.25-70.47,79.25-70.47-30-70.47-79.25,26.32-78.96,70.75-78.96Zm0,27.45c-21.23,0-32.55,16.13-32.55,51.51s11.04,51.79,32.26,51.79,32.26-16.13,32.26-51.79-11.04-51.51-31.98-51.51Zm262.92-27.45c-19.81,0-33.68,9.62-45,25.19-5.66-15.85-18.68-25.19-36.23-25.19-18.96,0-32.55,8.77-43.3,23.77l-2.83-19.53h-31.42v149.72h36.23v-104.15c8.21-13.87,15.85-22.64,28.58-22.64,8.77,0,16.42,5.38,16.42,24.06v102.74h36.23v-104.15c8.21-13.87,15.85-22.64,28.3-22.64,9.06,0,16.42,5.38,16.42,24.06v102.74h36.23v-108.4c0-28.3-15.85-45.57-39.62-45.57h0Zm159.34,0c39.06,0,55.47,30.85,55.47,78.68s-21.23,79.53-59.15,79.53c-15.28,0-28.3-5.38-37.64-16.42v69.91l-36.23,3.96v-211.42h31.7l1.98,18.4c11.89-15.57,27.74-22.64,43.87-22.64h0Zm-13.87,130.47c19.81,0,31.42-15.28,31.42-51.51s-10.19-51.79-28.3-51.79c-12.74,0-23.49,8.77-30.57,20.38v67.36c7.08,10.47,16.13,15.57,27.45,15.57Zm166.13-130.47c44.15,0,70.19,30,70.19,78.96s-26.32,79.25-70.47,79.25-70.47-30-70.47-79.25,26.32-78.96,70.75-78.96Zm0,27.45c-21.23,0-32.55,16.13-32.55,51.51s11.04,51.79,32.26,51.79,32.26-16.13,32.26-51.79-11.04-51.51-31.98-51.51h0Zm183.96-27.45c-18.96,0-33.96,8.77-45.57,23.77l-2.83-19.53h-31.42v149.72h36.23v-104.15c8.77-13.87,18.4-22.64,31.42-22.64,11.32,0,18.4,5.38,18.4,24.06v102.74h36.23v-108.4c0-28.58-15.57-45.57-42.45-45.57h0Zm207.45,75.57c0,4.81-.57,10.75-.85,14.72h-93.96c2.55,30.57,16.98,40.47,36.79,40.47,13.3,0,24.34-4.25,37.36-13.3l15,20.66c-14.72,11.89-32.83,20.09-55.47,20.09-46.42,0-71.32-30.85-71.32-78.11s24.06-80.09,66.51-80.09,65.94,28.3,65.94,75.57h0Zm-35.94-8.77v-1.7c0-24.62-8.77-39.34-29.15-39.34-16.98,0-27.74,11.32-29.72,41.04h58.87Zm148.3-66.79c-18.96,0-33.96,8.77-45.57,23.77l-2.83-19.53h-31.42v149.72h36.23v-104.15c8.77-13.87,18.4-22.64,31.42-22.64,11.32,0,18.4,5.38,18.4,24.06v102.74h36.23v-108.4c0-28.58-15.57-45.57-42.45-45.57h0Zm157.64,123.68c-6.51,3.68-12.17,5.38-17.83,5.38-11.04,0-15.85-5.94-15.85-20.66v-78.11h31.13l3.68-26.04h-34.81v-37.36l-36.23,4.25v33.11h-23.49v26.04h23.49v78.96c0,31.98,15.57,48.68,45,48.96,13.3,0,26.89-3.68,37.64-11.32l-12.74-23.21Zm80.38-123.68c-34.81,0-57.74,18.68-57.74,43.58,0,22.08,13.58,36.79,44.43,45.28,28.02,7.92,33.96,11.89,33.96,24.34,0,11.32-10.47,18.11-26.6,18.11-15.28,0-29.15-5.94-40.75-14.72l-18.11,20.38c13.87,12.45,33.96,21.23,59.72,21.23,34.25,0,63.11-16.42,63.11-47.55,0-26.6-17.26-39.06-47.83-47.26-25.47-7.08-31.42-11.6-31.42-21.51,0-9.06,8.21-15,22.64-15,13.3,0,25.19,4.25,37.64,12.17l14.15-21.23c-14.15-11.04-31.7-17.83-53.21-17.83h0ZM647.36,705.53l-284.59,176.89,284.59,180.03-29.09,36.16-296.38-185.53v-62.11l299.53-185.53m1488.21,178.46v61.32l-296.38,185.53-29.09-38.52,283.81-177.67-283.81-178.46,25.16-38.52"/><path class="cls-1" d="M1532.55,439.43l-5.79,30.18c-8.95,57.2-5.71,73.56,18.83,94.79l23.7,19.61-24.55,109.45c-14.67,65.3-32.65,120.03-44.07,138.01-9.8,15.51-21.23,38.36-23.7,50.64-4.09,14.67-17.98,29.41-39.21,42.45-18.76,10.65-55.58,39.21-81.66,62.14-20.84,18.76-35.2,30.26-42.99,35.2l-25.47,20.15c-8.18,13.12-12.81,23.7-14.59,31.72-1.78,8.26-.77,13.74,1.85,17.75,2.55,3.86,6.95,6.56,12.97,8.26,7.13,1.67,14.46,2.27,21.77,1.78,16.52-1.13,32.88-4.03,48.78-8.65,5.4-1.47,9.65-2.86,13.35-4.09,5.71-7.02,18.91-20.3,42.3-43.38,62.06-61.21,85.76-94.71,61.29-85.68-9.03,3.24-4.94-4.94,10.57-21.3,32.73-31.88,51.48-80.04,90.7-231.1,31.03-119.25,31.03-120.95,53.88-120.95,10.73,0,41.06,1.85,41.06,1.85v-148.82h-139.01Z"/><path class="cls-1" d="M1257.61,694.54c-22.54-.15-71.01,34.19-216.13,152.68-6.25,14.9-6.79,25.16-3.94,31.8,1.85,4.55,5.25,7.72,9.96,10.03,4.63,2.32,10.65,3.71,17.29,4.25,13.2,1.16,28.79-.93,41.37-3.4l8.49-1.93c2.91-3.9,6.72-7.02,11.12-9.11,8.95-4.94,46.54-39.21,84.13-75.95,66.15-67,81.66-97.26,54.73-107.06-2.21-.88-4.57-1.32-6.95-1.31h-.08Z"/><path class="cls-1" d="M1427.12,741.08c-19.84,.54-55.58,23.54-116.78,72.4-30.72,24.93-50.17,38.36-60.59,41.14l-40.45,31.96c-15.21,27.79-17.44,45-13.43,54.49,2.03,4.73,5.86,8.45,10.65,10.34,5.9,2.33,12.18,3.51,18.52,3.47,15.15-.16,30.21-2.37,44.77-6.56,7.59-2.04,15.08-4.41,22.46-7.1l2.24-.93,4.09-2.16c7.72-9.96,25.47-28.71,47.7-50.33,70.24-67.77,106.13-115.94,98.8-133.92-3.32-8.72-9.03-13.12-17.98-12.81Z"/><path class="cls-2" d="M1240.01,824.45c-5.71,.62-18.52,10.5-41.6,30.72-33.35,29.49-69.7,46.47-82.28,38.9-2.92,.66-5.86,1.28-8.8,1.85-12.81,2.55-28.79,4.63-43.07,3.47-6.73-.41-13.32-2.06-19.45-4.86-5.78-2.64-10.39-7.31-12.97-13.12-2.86-6.95-2.86-15.59,.39-26.63l-50.17,41.22-113.54,93.94v152.29l372.04-293.08c-.07-3.21,.34-6.41,1.23-9.49,2.86-10.34,2.7-15.59-1.78-15.13v-.08Z"/><path class="cls-2" d="M1402.27,879.34c-5.47,0-14.6,7.71-29.21,23.22-19.85,21.19-51.07,41.71-67.62,45.91l-2.55,1.35c-2.72,1.12-5.46,2.17-8.24,3.15-4.49,1.5-10.33,3.3-17.07,5.09-13.48,3.67-30.25,7.04-45.23,6.66-7.06,0-14.05-1.38-20.59-4.04-6.16-2.54-11.1-7.37-13.78-13.48-4.34-10.41-2.62-25.01,6.89-45.76l-318.42,250.8v90.24h139.89l296.7-233.05c7.71-8.54,19.32-20.22,34.97-34.82,41.94-38.87,51.45-52.27,51.45-72.12,0-15.43-1.72-23.22-7.19-23.22v.08Z"/><path class="cls-2" d="M1472.89,1025.37l-25.39,25.31c-14.23,13.48-39.62,30.1-56.99,37.22l-3.44,1.5-.22,.37-.75,.75c-.67,.52-.97,.6-1.5,.82-6.94,2.63-13.98,4.95-21.12,6.96-15.87,4.62-32.19,7.51-48.68,8.61-7.8,.5-15.62-.18-23.22-2.02-6.59-1.45-12.41-5.29-16.33-10.78-3.59-5.54-4.64-12.96-2.62-22.09,1.61-6.5,4-12.79,7.11-18.72l-239.41,189.16h318.42l38.04-43.58c52.27-60.96,76.09-104.54,76.09-141.84v-31.68Z"/><rect class="cls-3" x="20" y="20" width="2500" height="2500"/></svg>