<svg width="134" height="80" viewBox="0 0 134 80" fill="none" xmlns="http://www.w3.org/2000/svg">
<path d="M110.454 23.4326C105.464 21.714 101.059 18.624 97.7454 14.5168C94.0929 9.94066 89.4421 6.26059 84.1488 3.7581C78.8555 1.2556 73.06 -0.00302619 67.2055 0.0785098C59.3301 -0.479224 51.5335 1.9498 45.3685 6.88184C39.2034 11.8139 35.1222 18.8871 33.9376 26.6928C36.2708 22.7888 39.7825 19.7257 43.9672 17.9442C48.1518 16.1627 52.7938 15.7547 57.2251 16.779C62.2066 18.5476 66.6039 21.6556 69.9335 25.7613C73.606 30.3009 78.2656 33.9429 83.5578 36.4103C88.85 38.8777 94.6352 40.1054 100.473 40C108.349 40.5577 116.145 38.1287 122.31 33.1967C128.475 28.2646 132.557 21.1914 133.741 13.3857C131.45 17.3364 127.95 20.4458 123.757 22.2549C119.563 24.064 114.9 24.4769 110.454 23.4326ZM23.9572 56.5674C28.947 58.286 33.3515 61.376 36.6656 65.4832C40.318 70.0593 44.9688 73.7394 50.2621 76.2419C55.5554 78.7444 61.351 80.003 67.2055 79.9215C75.0809 80.4792 82.8774 78.0502 89.0425 73.1182C95.2076 68.1861 99.2888 61.1129 100.473 53.3072C98.1402 57.2112 94.6285 60.2743 90.4438 62.0558C86.2591 63.8373 81.6171 64.2453 77.1859 63.221C72.2044 61.4524 67.8071 58.3444 64.4775 54.2387C60.7952 49.7104 56.1336 46.0763 50.8437 43.61C45.5538 41.1437 39.7734 39.9094 33.9376 40C26.0622 39.4423 18.2656 41.8713 12.1006 46.8033C5.93551 51.7354 1.8543 58.8086 0.669678 66.6143C2.96055 62.6636 6.46101 59.5542 10.6543 57.7451C14.8475 55.936 19.5114 55.5231 23.9572 56.5674Z" fill="#38BDF8"/>
</svg>
