<svg width="81" height="80" viewBox="0 0 81 80" fill="none" xmlns="http://www.w3.org/2000/svg">
<path d="M0.409912 40V80H80.4099V0H0.409912V40ZM64.8771 36.8C66.7932 37.2447 68.5347 38.2468 69.8819 39.68C70.6236 40.4521 71.2683 41.3118 71.8019 42.24C71.8019 42.3424 68.3459 44.6784 66.2403 45.984C66.1635 46.0352 65.8563 45.7024 65.5171 45.1968C65.1327 44.5335 64.5866 43.9785 63.9296 43.5834C63.2727 43.1884 62.5264 42.9662 61.7603 42.9376C59.3347 42.7712 57.7731 44.0448 57.7859 46.1376C57.7659 46.6586 57.8852 47.1756 58.1315 47.6352C58.6627 48.7424 59.6547 49.4016 62.7651 50.7456C68.4931 53.2096 70.9443 54.8352 72.4675 57.1456C74.1699 59.7056 74.5475 63.84 73.3955 66.8992C72.1155 70.2272 68.9795 72.4864 64.5443 73.2352C62.5186 73.4672 60.4719 73.4457 58.4515 73.1712C55.3681 72.671 52.5237 71.2029 50.3299 68.9792C49.5939 68.1664 48.1603 66.048 48.2499 65.8944C48.4835 65.721 48.7295 65.5648 48.9859 65.4272L51.9299 63.7376L54.2275 62.4064L54.7075 63.1168C55.5176 64.2756 56.5485 65.263 57.7411 66.0224C60.3011 67.3664 63.7955 67.1808 65.5235 65.6256C66.1037 65.0557 66.4656 64.3004 66.5463 63.4912C66.627 62.6819 66.4213 61.87 65.9651 61.1968C65.3251 60.3072 64.0451 59.5584 60.4675 57.9968C56.3395 56.2176 54.5603 55.1168 52.9347 53.3632C51.9199 52.206 51.1706 50.8407 50.7395 49.3632C50.4179 47.6752 50.3704 45.9464 50.5987 44.2432C51.4499 40.256 54.4387 37.472 58.8035 36.6464C60.8249 36.3963 62.8725 36.4524 64.8771 36.8128V36.8ZM46.0995 40.1536V43.4304H35.7123V73.0176H28.3459V43.424H17.9331V40.224C17.9052 39.1224 17.9351 38.0201 18.0227 36.9216C18.0611 36.8704 24.4227 36.8448 32.1027 36.8576H46.0611L46.0995 40.1536Z" fill="#007ACC"/>
</svg>
